<?xml version="1.0" standalone="no"?>
<!DOCTYPE svg PUBLIC "-//W3C//DTD SVG 20010904//EN" "http://www.w3.org/TR/2001/REC-SVG-20010904/DTD/svg10.dtd">
<svg xmlns="http://www.w3.org/2000/svg" version="1.0" width="1024.000000pt" height="1024.000000pt" viewBox="0 0 1024.000000 1024.000000" preserveAspectRatio="xMidYMid meet">
<metadata>
Created by potrace 1.16, written by Peter Selinger 2001-2019
<meta name="Producer" content="Online-Convert"/></metadata>
<g transform="translate(0.000000,1024.000000) scale(0.100000,-0.100000)" fill="#000000" stroke="none">
<path d="M1490 6220 c-501 -5 -505 -5 -563 -28 -83 -34 -174 -107 -224 -180 -80 -118 -77 -85 -83 -820 -3 -358 -2 -652 3 -652 4 0 7 -12 7 -26 0 -14 15 -58 33 -98 43 -93 118 -169 217 -221 l75 -40 665 -3 c488 -2 677 0 710 9 51 13 152 62 188 89 54 43 142 176 142 215 0 9 3 14 8 11 13 -8 17 177 17 769 0 518 -2 575 -18 627 -41 134 -144 254 -267 311 -62 29 -73 30 -235 36 -93 3 -397 4 -675 1z m338 -354 c64 -33 69 -64 72 -398 l0 -26 183 -4 c173 -3 184 -4 215 -27 18 -13 37 -34 42 -47 5 -12 10 -87 11 -166 3 -231 -4 -238 -269 -238 l-180 0 -4 -182 c-4 -198 -7 -212 -60 -250 -31 -22 -42 -23 -188 -23 -129 0 -160 3 -187 18 -53 29 -58 45 -63 247 l-5 185 -167 2 c-253 3 -263 12 -263 245 0 133 2 149 21 175 40 55 72 63 252 63 l162 0 0 175 c0 220 8 241 105 266 54 15 287 4 323 -15z"/>
<path d="M6900 5749 c-149 -17 -228 -46 -323 -118 -181 -136 -256 -447 -165 -688 28 -75 101 -167 168 -213 94 -64 195 -93 320 -93 70 0 124 6 162 17 32 10 63 14 69 10 8 -5 9 -3 4 6 -6 10 -4 12 11 6 10 -4 15 -4 12 0 -4 3 19 25 50 49 32 23 73 62 92 86 19 24 37 46 40 49 3 3 7 12 8 20 2 8 11 43 20 78 18 68 12 83 -33 81 -16 -1 -16 -2 5 -9 17 -5 -7 -8 -71 -9 l-95 -1 -18 -42 c-47 -104 -129 -153 -256 -152 -140 1 -240 75 -283 209 -65 200 8 427 157 489 48 20 120 31 112 17 -4 -6 -2 -11 3 -11 6 0 11 5 11 12 0 9 3 9 12 0 7 -7 19 -12 28 -11 10 0 9 3 -5 9 -29 12 -1 12 50 -1 48 -12 129 -74 119 -91 -4 -7 -2 -8 4 -4 15 9 32 -26 26 -51 -3 -12 -1 -24 4 -27 6 -4 8 3 6 16 l-5 23 12 -22 c11 -22 18 -23 120 -23 l109 0 -6 33 c-3 17 -15 54 -25 80 -11 26 -17 53 -13 59 4 6 3 8 -3 5 -6 -4 -19 6 -29 21 -53 80 -146 141 -265 171 -38 10 -66 21 -62 24 3 4 4 6 2 6 -2 -1 -38 -5 -79 -10z"/>
<path d="M4101 5744 c-1 -8 -38 -12 -113 -13 -61 -1 -115 -4 -118 -6 -4 -3 -31 -58 -60 -122 -30 -65 -72 -158 -95 -208 -23 -49 -57 -124 -75 -165 -18 -41 -35 -78 -39 -82 -7 -8 -123 238 -124 265 -1 9 -4 17 -8 17 -4 0 -38 68 -75 150 l-69 150 -142 0 -143 0 0 -530 0 -530 105 0 c93 0 105 2 105 18 0 9 1 179 1 377 0 227 3 353 9 340 5 -11 67 -146 137 -300 l128 -280 70 0 70 0 19 40 c10 22 58 128 106 235 49 107 102 224 118 260 l31 65 0 -313 c1 -245 -2 -311 -12 -306 -9 5 -9 4 1 -7 6 -7 12 -27 12 -45 0 -18 -6 -35 -12 -37 -10 -4 -9 -8 2 -16 13 -9 13 -11 1 -11 -10 0 -11 -3 -5 -9 5 -6 47 -10 94 -11 107 -2 148 0 133 6 -8 4 -12 57 -13 180 -1 141 2 174 12 168 10 -5 11 -4 1 7 -10 10 -13 95 -13 356 0 289 -2 343 -14 343 -8 0 -17 6 -19 13 -4 7 -6 8 -6 1z"/>
<path d="M6099 5725 c-37 -20 -59 -58 -59 -103 0 -21 -6 -44 -12 -52 -11 -12 -10 -12 2 -3 13 10 19 8 30 -10 8 -12 14 -24 13 -27 -1 -3 6 -7 15 -8 99 -13 108 -12 138 6 105 66 62 213 -61 212 -22 -1 -52 -7 -66 -15z"/>
<path d="M5712 5560 c2 -93 2 -170 0 -170 -2 0 -22 13 -45 28 -54 36 -92 52 -123 52 -14 0 -23 4 -20 9 11 18 -168 -20 -216 -46 -178 -97 -256 -368 -164 -569 14 -30 23 -54 21 -54 -3 0 20 -25 51 -55 78 -76 149 -109 246 -114 94 -4 158 15 217 65 l41 36 0 -36 c0 -22 5 -36 13 -37 53 -3 187 1 187 5 0 3 0 242 0 531 l0 525 -106 0 -106 0 4 -170z m-93 -289 c41 -21 66 -52 53 -66 -4 -3 -1 -5 7 -3 21 5 42 -69 43 -152 1 -87 -19 -138 -76 -188 -61 -54 -176 -57 -241 -8 -61 47 -80 96 -80 206 0 86 3 100 27 142 54 91 166 120 267 69z"/>
<path d="M9143 5483 c4 -6 -10 -13 -34 -17 -109 -17 -219 -126 -219 -217 0 -26 3 -31 20 -26 11 3 20 0 20 -6 0 -7 5 -5 10 3 9 13 10 13 10 0 0 -13 2 -13 9 -1 7 11 22 12 65 7 53 -6 57 -5 66 18 15 40 54 59 120 59 85 0 134 -38 146 -114 l6 -34 -129 0 c-170 0 -263 -26 -325 -92 -30 -31 -58 -91 -58 -123 0 -11 -5 -20 -10 -20 -7 0 -7 -7 -2 -17 5 -10 8 -37 8 -60 -1 -22 2 -39 7 -36 4 2 7 -2 7 -10 0 -8 13 -33 30 -55 35 -49 102 -85 187 -102 82 -16 169 6 240 60 l50 37 1 -29 c0 -17 3 -32 5 -35 4 -3 146 -7 182 -4 16 1 8 545 -10 606 -18 63 -73 129 -134 159 -60 30 -91 37 -179 41 -40 2 -77 7 -84 11 -6 4 -8 3 -5 -3z m196 -462 c22 -1 23 -4 19 -59 -4 -64 -39 -128 -64 -118 -8 3 -13 0 -11 -6 3 -17 -83 -40 -126 -33 -50 7 -82 29 -97 65 -26 62 22 133 98 145 20 4 44 8 52 10 8 2 35 2 60 0 25 -2 56 -4 69 -4z"/>
<path d="M4570 5470 c-159 -21 -292 -159 -320 -332 -10 -68 -1 -188 20 -242 5 -15 7 -33 3 -39 -3 -7 -2 -9 2 -4 10 9 61 -73 57 -93 -2 -10 0 -11 5 -3 6 8 18 3 40 -17 17 -16 28 -31 25 -35 -4 -4 -2 -5 3 -4 6 2 35 -9 65 -24 58 -28 118 -42 185 -41 84 1 153 9 147 18 -3 5 5 7 16 4 12 -4 20 -3 17 2 -3 4 8 13 23 19 45 19 122 100 148 155 40 86 39 87 -72 85 l-97 -3 -46 -46 c-35 -35 -57 -48 -87 -53 -65 -11 -162 11 -149 33 3 6 0 7 -7 5 -20 -8 -55 33 -73 84 -27 76 -47 71 275 71 l290 0 0 56 c0 210 -123 368 -314 403 -65 12 -74 12 -156 1z m169 -188 c19 -9 36 -24 39 -34 2 -10 8 -18 12 -18 7 0 40 -61 40 -74 0 -3 -81 -6 -180 -6 -99 0 -180 4 -180 9 0 5 6 24 14 42 39 93 151 129 255 81z"/>
<path d="M8170 5470 c0 -6 -38 -10 -95 -10 l-95 0 0 -260 c0 -296 -3 -312 -69 -355 -78 -52 -181 -31 -226 45 -18 32 -20 55 -23 293 -3 211 -2 257 10 257 10 0 9 3 -2 10 -23 15 -220 13 -221 -2 0 -12 0 -109 1 -150 1 -10 1 -53 0 -95 0 -43 1 -104 3 -135 1 -32 -2 -58 -7 -58 -6 0 -5 -5 2 -12 7 -7 12 -37 12 -67 0 -40 -3 -52 -10 -41 -7 10 -10 11 -10 2 0 -7 7 -15 15 -18 8 -4 15 -16 15 -28 1 -34 36 -102 69 -132 17 -15 29 -30 26 -33 -2 -4 4 -7 13 -8 9 -1 37 -9 62 -18 72 -28 173 -25 242 7 31 15 65 36 74 47 20 23 34 13 34 -24 0 -19 7 -20 100 -20 l100 0 0 387 c0 212 4 388 8 390 4 2 0 11 -10 21 -10 9 -18 13 -18 7z"/>
<path d="M8695 5472 c-60 -9 -149 -67 -165 -106 -6 -15 -9 -5 -9 37 l-1 57 -99 0 c-94 0 -99 -1 -104 -22 -3 -13 -6 -191 -6 -395 l0 -373 89 0 c61 0 90 -4 93 -12 4 -10 6 -10 6 0 1 6 7 12 14 12 11 0 14 48 15 233 3 219 4 234 25 277 32 63 82 90 170 90 l67 0 0 105 0 105 -37 -3 c-21 -1 -47 -3 -58 -5z"/>
<path d="M6059 5453 c0 -5 -1 -183 -1 -396 l-1 -389 102 -1 101 -2 0 398 0 397 -100 0 c-55 0 -100 -3 -101 -7z"/>
</g>
</svg>
